<?xml version="1.0" standalone="no"?>
<!DOCTYPE svg PUBLIC "-//W3C//DTD SVG 1.1//EN" "http://www.w3.org/Graphics/SVG/1.1/DTD/svg11.dtd">
<svg xmlns="http://www.w3.org/2000/svg">
<defs >
<font id="BigShouldersDisplay" horiz-adv-x="687" ><font-face
    font-family="Big Shoulders Display"
    units-per-em="2000"
    panose-1="0 0 0 0 0 0 0 0 0 0"
    ascent="1968"
    descent="-426"
    alphabetic="0" />
<glyph unicode=" " glyph-name="space" horiz-adv-x="414" />
<glyph unicode="!" glyph-name="exclam" horiz-adv-x="410" d="M157 316L135 1189V1600H275V1189L254 316H157ZM93 0V179H317V0H93Z" />
<glyph unicode="&quot;" glyph-name="quotedbl" horiz-adv-x="538" d="M119 1189L93 1406V1600H213V1406L186 1189H119ZM352 1189L326 1406V1600H445V1406L419 1189H352Z" />
<glyph unicode="#" glyph-name="numbersign" horiz-adv-x="1122" d="M104 0L225 436H60L90 548H251L383 995H214L244 1107H408L548 1600H678L538 1107H749L890 1600H1020L879 1107H1058L1030 995H854L723 548H899L869 436H697L577 0H447L567 436H355L234 0H104ZM381
548H593L724 995H513L381 548Z" />
<glyph unicode="$" glyph-name="dollar" horiz-adv-x="683" d="M282 -184V-10Q179 2 132 64T80 250Q78 342 78 413T83 579H210Q206 490 206 402T210 230Q213 162 244 131T344 100Q411 100 439 131T472 230Q475 286 475 330T476 421T472 531Q470 605 452 655T375
721L271 748Q155 777 118 850T78 1062Q76 1127 77 1204T79 1353Q82 1477 128 1538T282 1610V1798H400V1610Q501 1599 548 1537T599 1351Q600 1296 600 1216T597 1045H469Q472 1127 472 1208T470 1371Q465 1501 342 1501Q274 1501 245 1470T212 1371Q208 1295 208
1218T212 1062Q215 973 233 928T312 869L410 845Q528 817 565 741T606 531Q607 469 607 427T608 344T605 250Q601 124 553 63T400 -11V-184H282Z" />
<glyph unicode="%" glyph-name="percent" horiz-adv-x="993" d="M260 869Q187 869 147 909T105 1022Q102 1236 105 1456Q107 1527 146 1567T260 1607Q333 1607 373 1567T416 1456Q421 1236 416 1022Q413 950 373 910T260 869ZM111 0L790 1600H887L207 0H111ZM260
952Q287 952 301 967T318 1006Q320 1074 321 1155T321 1318T318 1470Q316 1492 302 1508T260 1525Q232 1525 218 1509T203 1469Q199 1365 199 1237T203 1006Q204 986 218 969T260 952ZM704 -9Q632 -9 592 31T549 144Q546 358 549 578Q551 649 591 689T704 729Q778
729 817 689T860 578Q865 358 860 144Q857 72 818 32T704 -9ZM704 74Q731 74 745 89T762 128Q765 196 766 277T766 440T762 592Q761 614 747 630T704 647Q677 647 663 631T647 591Q643 487 643 359T647 128Q649 108 663 91T704 74Z" />
<glyph unicode="&amp;" glyph-name="ampersand" horiz-adv-x="938" d="M385 -13Q244 -13 182 49T116 250Q114 340 115 399T119 504T130 605Q138 688 173 746T252 853Q200 984 169 1109T137 1342Q129 1474 186 1543T372 1613Q505 1613 563 1548T614 1348Q609 1216
560 1101T432 885Q424 874 415 861T397 835Q433 749 475 665T561 501Q558 573 554 652T540 805L651 809Q660 738 665 652T672 479T672 321Q717 248 758 187T832 78L743 1Q695 63 640 145Q616 61 555 24T385 -13ZM344 955Q422 1055 457 1151T496 1348Q502 1434 475
1473T372 1512Q308 1512 282 1474T256 1360Q255 1272 279 1169T344 955ZM388 103Q487 103 513 149T542 293Q480 391 422 499T312 718Q294 692 279 662T259 594Q248 535 245 462T245 247Q247 172 281 138T388 103Z" />
<glyph unicode="&apos;" glyph-name="quotesingle" horiz-adv-x="306" d="M119 1189L93 1406V1600H213V1406L186 1189H119Z" />
<glyph unicode="(" glyph-name="parenleft" horiz-adv-x="466" d="M304 -400Q226 -267 172 -103T89 242T60 604Q60 775 87 951T168 1294T304 1600H406Q301 1369 248 1111T195 600Q195 347 248 84T406 -400H304Z" />
<glyph unicode=")" glyph-name="parenright" horiz-adv-x="466" d="M162 -400Q240 -267 294 -103T377 242T406 604Q406 775 379 951T298 1294T162 1600H60Q165 1369 218 1111T271 600Q271 347 218 84T60 -400H162Z" />
<glyph unicode="*" glyph-name="asterisk" horiz-adv-x="514" d="M52 1315L205 1392L52 1470L86 1531L230 1438L223 1608H292L283 1437L428 1531L462 1470L310 1392L462 1315L428 1254L283 1348L292 1176H223L230 1346L86 1254L52 1315Z" />
<glyph unicode="+" glyph-name="plus" horiz-adv-x="879" d="M387 443V723H106V829H387V1110H493V829H773V723H493V443H387Z" />
<glyph unicode="," glyph-name="comma" horiz-adv-x="411" d="M136 -204L212 0H93V181H318V17L222 -204H136Z" />
<glyph unicode="-" glyph-name="hyphen" horiz-adv-x="635" d="M60 707V827H575V707H60Z" />
<glyph unicode="." glyph-name="period" horiz-adv-x="410" d="M93 0V179H317V0H93Z" />
<glyph unicode="/" glyph-name="slash" horiz-adv-x="653" d="M60 -400L460 1600H593L193 -400H60Z" />
<glyph unicode="0" glyph-name="zero" horiz-adv-x="745" d="M372 -14Q246 -14 178 53T109 246Q105 513 105 800T109 1354Q110 1480 178 1547T372 1614Q497 1614 565 1547T635 1354Q640 1086 640 799T635 246Q633 121 565 54T372 -14ZM372 100Q499 100 502 226Q508
539 508 836T502 1374Q499 1501 372 1501Q245 1501 242 1374Q236 1068 236 771T242 226Q245 100 372 100Z" />
<glyph unicode="1" glyph-name="one" horiz-adv-x="399" d="M160 0V1454H92L86 1508L186 1600H293V0H160Z" />
<glyph unicode="2" glyph-name="two" horiz-adv-x="717" d="M112 0Q111 43 111 70T110 123T109 189T110 297Q112 436 140 525T214 673T320 773L407 841Q470 894 487 950T508 1070Q516 1221 508 1371Q504 1439 473 1470T370 1501Q303 1501 273 1470T240 1371Q239
1290 239 1209T242 1045H111Q109 1127 108 1208T108 1351Q113 1492 174 1553T372 1614Q515 1614 575 1554T641 1353Q642 1313 643 1261T644 1157T642 1071Q638 978 616 915T552 804T450 710L358 643Q300 594 273 501T245 297V120H639V0H112Z" />
<glyph unicode="3" glyph-name="three" horiz-adv-x="739" d="M355 -14Q214 -14 151 47T83 250Q80 320 80 387T83 553H215V236Q215 100 352 100Q484 100 484 236Q491 441 484 642Q481 718 447 756T327 795L220 794L215 907L473 1480H83V1600H627L625 1490L361
912Q495 906 553 844T617 643Q624 391 617 250Q611 109 550 48T355 -14Z" />
<glyph unicode="4" glyph-name="four" horiz-adv-x="771" d="M408 0V490H60V598L334 1600H533V609H674V490H533V0H408ZM191 609H408L423 1041L438 1480H400L298 1041L191 609Z" />
<glyph unicode="5" glyph-name="five" horiz-adv-x="754" d="M380 -14Q238 -14 175 47T107 250Q102 407 108 553H240Q237 477 237 393T240 236Q244 165 275 133T376 100Q444 100 474 132T509 236Q515 363 516 480T511 727Q506 857 390 857Q326 857 290 822T252
723H125V1600H634V1480H257V888H287Q305 923 345 947T441 971Q542 971 590 910T644 729Q648 596 648 482T642 250Q632 109 573 48T380 -14Z" />
<glyph unicode="6" glyph-name="six" horiz-adv-x="733" d="M367 -15Q231 -15 171 46T109 248Q105 532 105 806T109 1350Q114 1487 178 1549T365 1612Q620 1612 630 1350Q630 1318 630 1268T631 1168T629 1083H497Q503 1217 497 1370Q494 1437 464 1468T367 1500Q245
1500 242 1370Q236 1137 236 876H269Q288 912 333 935T435 959Q545 959 590 903T638 717Q642 590 642 479T638 248Q632 107 570 46T367 -15ZM368 98Q502 98 505 228Q508 361 508 476T506 715Q503 845 385 845Q322 845 281 813T236 718Q237 606 238 485T242 228Q245
98 368 98Z" />
<glyph unicode="7" glyph-name="seven" horiz-adv-x="663" d="M137 0L468 1480H66V1600H603V1484L273 0H137Z" />
<glyph unicode="8" glyph-name="eight" horiz-adv-x="731" d="M364 -14Q231 -14 170 47T103 250Q99 318 99 402T104 611Q110 696 138 743T225 815V844Q176 863 147 905T111 1019Q100 1210 107 1351Q112 1492 172 1553T364 1614Q496 1614 556 1553T623 1351Q626
1279 625 1196T618 1019Q610 947 582 906T505 846V815Q559 790 588 742T625 611Q629 487 629 403T626 250Q620 109 559 48T364 -14ZM364 893Q492 893 494 1036Q495 1123 496 1200T494 1365Q492 1436 463 1468T364 1501Q239 1501 235 1365Q230 1200 235 1036Q237
961 268 927T364 893ZM364 100Q433 100 463 132T494 236Q500 429 494 623Q492 697 462 731T364 766Q299 766 268 732T235 623Q230 429 235 236Q239 100 364 100Z" />
<glyph unicode="9" glyph-name="nine" horiz-adv-x="731" d="M368 -15Q231 -15 170 46T107 248Q107 280 107 330T106 430T108 515H240Q238 444 238 374T240 228Q242 162 270 130T366 98Q429 98 457 129T488 228Q491 337 492 459T495 710H467Q448 674 405 650T306
625Q210 625 152 683T92 874Q90 936 90 1023T89 1199T92 1349Q96 1490 159 1551T363 1612Q499 1612 558 1551T620 1349Q625 1069 625 792T620 248Q618 107 558 46T368 -15ZM349 740Q410 740 449 770T495 856Q494 984 492 1112T488 1369Q485 1500 361 1500Q227 1500
225 1369Q224 1306 224 1214T223 1029T224 870Q227 740 349 740Z" />
<glyph unicode=":" glyph-name="colon" horiz-adv-x="410" d="M93 600V779H317V600H93ZM93 0V179H317V0H93Z" />
<glyph unicode=";" glyph-name="semicolon" horiz-adv-x="425" d="M136 -204L212 0H93V181H318V17L222 -204H136ZM93 604V783H317V604H93Z" />
<glyph unicode="&lt;" glyph-name="less" horiz-adv-x="889" d="M783 574V686L421 739L210 762V802L420 826L783 881V994L106 875V689L783 574Z" />
<glyph unicode="=" glyph-name="equal" horiz-adv-x="839" d="M106 844V950H733V844H106ZM106 604V710H733V604H106Z" />
<glyph unicode="&gt;" glyph-name="greater" horiz-adv-x="889" d="M106 574V686L468 739L679 762V802L469 826L106 881V994L783 875V689L106 574Z" />
<glyph unicode="?" glyph-name="question" horiz-adv-x="648" d="M236 318L231 601Q228 682 251 728T339 805L379 823Q424 843 434 890T445 1033V1372Q445 1502 321 1502Q259 1502 232 1471T201 1372Q197 1297 197 1215T200 1046H71Q69 1124 69 1202T70 1352Q74
1492 132 1553T319 1614Q456 1614 516 1554T577 1353Q577 1244 577 1184T578 1091T578 1033Q576 924 561 865T515 775T435 722L397 705Q358 687 351 658T342 600L335 318H236ZM172 0V179H396V0H172Z" />
<glyph unicode="@" glyph-name="at" horiz-adv-x="979" d="M490 -237Q297 -237 206 -172T111 46Q108 240 107 413T106 762T111 1140Q114 1296 205 1364T490 1432Q683 1432 775 1364T870 1139Q872 960 872 822T872 563T869 316Q866 186 712 186Q636 186 602 208T559
274H535Q517 231 493 208T426 185Q367 185 338 224T304 357Q300 473 300 603T304 851Q308 943 338 983T428 1023Q469 1023 492 1003T534 937H551V1013H659L660 319Q660 261 712 261Q759 261 761 319Q763 491 764 684T763 1144Q760 1246 695 1291T490 1336Q353 1336
288 1292T220 1144Q216 949 215 770T214 412T220 41Q223 -57 288 -99T490 -141Q627 -141 692 -100T759 41Q759 63 759 78T757 128H864Q866 91 866 75T866 41Q862 -109 773 -173T490 -237ZM467 266Q530 266 553 350L551 861Q540 900 517 920T467 940Q414 940 411
859Q407 739 407 604T413 348Q415 302 427 284T467 266Z" />
<glyph unicode="A" glyph-name="A" horiz-adv-x="677" d="M44 0L215 1600H463L633 0H498L456 464H221L180 0H44ZM234 584H443L412 934L367 1480H311L266 933L234 584Z" />
<glyph unicode="B" glyph-name="B" horiz-adv-x="693" d="M106 0V1600H344Q480 1600 542 1540T607 1341Q609 1241 609 1167T607 1022Q600 862 487 822V785Q549 765 577 717T609 585Q611 497 611 422T609 259Q604 121 543 61T344 0H106ZM238 865H342Q471 865 474
1024Q480 1186 474 1347Q471 1480 344 1480H238V865ZM238 120H344Q472 120 476 260Q481 420 476 580Q474 669 442 707T337 746H238V120Z" />
<glyph unicode="C" glyph-name="C" horiz-adv-x="699" d="M355 -15Q217 -15 158 46T96 248Q91 530 91 799T96 1351Q99 1481 159 1546T353 1612Q490 1612 551 1551T617 1350Q618 1312 618 1255T617 1140T615 1044H483Q484 1121 484 1207T484 1370Q482 1440 452
1470T353 1500Q289 1500 260 1470T229 1370Q223 1074 223 800T229 228Q230 159 259 129T355 98Q427 98 458 128T492 228Q493 310 493 402T490 577H623Q626 492 626 413T625 248Q621 107 558 46T355 -15Z" />
<glyph unicode="D" glyph-name="D" horiz-adv-x="720" d="M106 0V1600H362Q500 1600 561 1538T625 1334Q628 1143 629 972T629 629T625 267Q622 124 561 62T360 0H106ZM238 120H360Q429 120 460 152T492 254Q501 801 492 1347Q491 1416 460 1448T362 1480H238V120Z" />
<glyph unicode="E" glyph-name="E" horiz-adv-x="603" d="M106 0V1600H557V1480H238V865H537V746H238V120H557V0H106Z" />
<glyph unicode="F" glyph-name="F" horiz-adv-x="589" d="M106 0V1600H557V1480H238V865H537V746H238V0H106Z" />
<glyph unicode="G" glyph-name="G" horiz-adv-x="698" d="M359 -14Q219 -14 160 47T97 250Q86 799 97 1345Q100 1490 160 1552T357 1614Q489 1614 549 1553T616 1351Q622 1198 616 1045H484Q490 1208 484 1371Q478 1501 357 1501Q233 1501 229 1371Q217 801 229
230Q230 162 260 131T359 100Q489 100 494 230Q498 393 494 555H361V674H624Q626 597 626 494T623 250Q618 109 557 48T359 -14Z" />
<glyph unicode="H" glyph-name="H" horiz-adv-x="732" d="M106 0V1600H238V865H494V1600H626V0H494V746H238V0H106Z" />
<glyph unicode="I" glyph-name="I" horiz-adv-x="344" d="M106 0V1600H238V0H106Z" />
<glyph unicode="J" glyph-name="J" horiz-adv-x="658" d="M314 -14Q175 -14 119 47T58 250Q54 414 58 579H185Q182 496 182 404T185 230Q187 162 216 131T314 100Q380 100 408 131T437 230V1600H570V250Q570 109 512 48T314 -14Z" />
<glyph unicode="K" glyph-name="K" horiz-adv-x="691" d="M106 0V1600H246L244 1221L225 813H259L386 1257L497 1600H642L404 884L667 0H530L319 725L241 516V0H106Z" />
<glyph unicode="L" glyph-name="L" horiz-adv-x="579" d="M106 0V1600H238V120H558V0H106Z" />
<glyph unicode="M" glyph-name="M" horiz-adv-x="1056" d="M106 0V1600H349L445 946L509 127H547L609 946L707 1600H950V0H816V466L840 1480H795L688 460L616 7H438L368 460L261 1480H218L239 466V0H106Z" />
<glyph unicode="N" glyph-name="N" horiz-adv-x="806" d="M106 0V1600H332L421 1093L557 120H602L579 1034L570 1600H700V0H466L366 574L252 1480H204L226 599L234 0H106Z" />
<glyph unicode="O" glyph-name="O" horiz-adv-x="719" d="M360 -14Q221 -14 161 46T97 246Q91 533 91 800T97 1354Q100 1493 160 1553T360 1614Q500 1614 560 1554T623 1354Q628 1066 628 800T623 246Q621 107 561 47T360 -14ZM360 100Q430 100 459 128T491 226Q499
520 498 804T491 1374Q489 1443 459 1472T360 1501Q292 1501 262 1472T230 1374Q221 1089 222 805T230 226Q231 157 261 129T360 100Z" />
<glyph unicode="P" glyph-name="P" horiz-adv-x="671" d="M106 0V1600H349Q485 1600 546 1540T613 1341Q618 1207 618 1101T613 884Q607 746 546 686T348 626H238V0H106ZM238 745H348Q416 745 446 777T480 879Q489 1113 480 1347Q477 1416 447 1448T349 1480H238V745Z" />
<glyph unicode="Q" glyph-name="Q" horiz-adv-x="719" d="M596 -188Q489 -196 433 -155T360 -14Q221 -14 161 46T97 246Q91 533 91 800T97 1354Q100 1493 160 1553T360 1614Q500 1614 560 1554T623 1354Q628 1066 628 800T623 246Q622 145 589 89T484 9Q499 -88
596 -79V-188ZM360 100Q430 100 459 128T491 226Q499 520 498 804T491 1374Q489 1443 460 1472T360 1501Q292 1501 262 1472T230 1374Q221 1089 222 805T230 226Q231 157 261 129T360 100Z" />
<glyph unicode="R" glyph-name="R" horiz-adv-x="697" d="M106 0V1600H349Q485 1600 546 1540T613 1341Q618 1207 618 1094T613 870Q606 680 483 634L644 0H502L355 611H238V0H106ZM238 731H348Q416 731 446 763T480 864Q489 1106 480 1347Q477 1416 447 1448T349
1480H238V731Z" />
<glyph unicode="S" glyph-name="S" horiz-adv-x="683" d="M345 -14Q206 -14 146 47T80 250Q78 342 78 413T83 579H210Q206 490 206 402T210 230Q213 162 244 131T344 100Q411 100 439 131T472 230Q475 286 475 330T476 421T472 531Q470 605 452 655T375 721L271
748Q155 777 118 850T78 1062Q76 1127 77 1204T79 1353Q83 1493 142 1553T344 1614Q476 1614 535 1553T599 1351Q600 1296 600 1216T597 1045H469Q472 1127 472 1208T470 1371Q465 1501 342 1501Q274 1501 245 1470T212 1371Q208 1295 208 1218T212 1062Q215 973
233 928T312 869L410 845Q528 817 565 741T606 531Q607 469 607 427T608 344T605 250Q600 109 540 48T345 -14Z" />
<glyph unicode="T" glyph-name="T" horiz-adv-x="561" d="M214 0V1480H10V1600H550V1480H347V0H214Z" />
<glyph unicode="U" glyph-name="U" horiz-adv-x="704" d="M352 -14Q214 -14 154 46T92 246Q84 923 92 1600H224Q220 1262 220 913T223 226Q223 100 352 100Q480 100 480 226Q483 564 483 913T480 1600H613Q620 923 613 246Q611 107 551 47T352 -14Z" />
<glyph unicode="V" glyph-name="V" horiz-adv-x="688" d="M228 0L51 1600H189L285 709L325 120H362L403 709L498 1600H638L460 0H228Z" />
<glyph unicode="W" glyph-name="W" horiz-adv-x="1063" d="M174 0L65 1600H199L234 998L277 120H312L358 998L431 1590H630L703 998L749 120H784L829 998L866 1600H998L887 0H654L601 525L548 1473H515L460 525L406 0H174Z" />
<glyph unicode="X" glyph-name="X" horiz-adv-x="659" d="M46 0L234 816L55 1600H184L265 1223L319 870H341L395 1223L475 1600H604L429 812L613 0H483L398 396L341 750H319L262 396L175 0H46Z" />
<glyph unicode="Y" glyph-name="Y" horiz-adv-x="652" d="M258 0V421L41 1600H177L254 1148L308 691H344L396 1148L473 1600H611L392 420V0H258Z" />
<glyph unicode="Z" glyph-name="Z" horiz-adv-x="597" d="M32 0V108L418 1480H56V1600H562V1490L168 120H526V0H32Z" />
<glyph unicode="[" glyph-name="bracketleft" horiz-adv-x="497" d="M106 -400V1600H437V1524H238V-324H437V-400H106Z" />
<glyph unicode="\" glyph-name="backslash" horiz-adv-x="653" d="M593 -400L193 1600H60L460 -400H593Z" />
<glyph unicode="]" glyph-name="bracketright" horiz-adv-x="497" d="M399 -400V1600H68V1524H267V-324H68V-400H399Z" />
<glyph unicode="^" glyph-name="asciicircum" horiz-adv-x="701" d="M106 935L303 1380H398L595 935H499L351 1277L202 935H106Z" />
<glyph unicode="_" glyph-name="underscore" horiz-adv-x="1312" d="M60 -120V-80H1252V-120H60Z" />
<glyph unicode="`" glyph-name="grave" horiz-adv-x="443" d="M240 1280L104 1507H206L339 1280H240Z" />
<glyph unicode="a" glyph-name="a" horiz-adv-x="695" d="M277 -13Q180 -13 134 44T79 214Q78 239 77 265T77 315Q84 420 125 496T279 636Q367 687 460 727V982Q460 1048 435 1078T345 1108Q288 1108 260 1082T229 985Q228 950 228 893T229 791H100Q99 830 98
881T98 973Q103 1101 160 1157T349 1213Q487 1213 539 1153T591 956V0H459V108H437Q415 50 379 19T277 -13ZM321 90Q420 90 460 206V617Q425 603 389 584T307 531Q250 489 231 437T209 315Q208 297 208 272T210 222Q220 90 321 90Z" />
<glyph unicode="b" glyph-name="b" horiz-adv-x="729" d="M439 -14Q370 -14 332 16T264 107H242V0H109V1600H242V1093H271Q301 1155 339 1184T447 1214Q541 1214 586 1159T635 976Q639 786 639 591T635 224Q631 97 583 42T439 -14ZM400 90Q453 90 476 119T502
215Q513 572 502 985Q500 1052 477 1081T400 1110Q343 1110 303 1081T242 988V212Q262 149 302 120T400 90Z" />
<glyph unicode="c" glyph-name="c" horiz-adv-x="680" d="M471 791Q474 841 474 895T473 985Q472 1056 443 1082T350 1108Q285 1108 257 1082T227 985Q224 842 223 722T223 481T227 218Q228 145 257 119T351 92Q415 92 443 118T473 218Q473 256 473 304T471 412H601Q603
367 603 318T603 230Q598 100 541 43T351 -14Q217 -14 158 43T94 230Q91 338 90 468T90 728T94 968Q100 1100 159 1157T350 1214Q482 1214 540 1158T603 972Q603 934 603 885T601 791H471Z" />
<glyph unicode="d" glyph-name="d" horiz-adv-x="729" d="M285 -14Q190 -14 144 41T94 224Q90 396 90 591T94 976Q98 1104 145 1159T287 1214Q356 1214 394 1185T463 1093H487V1600H619V0H487V107H461Q432 48 393 17T285 -14ZM329 90Q385 90 426 119T487 212V988Q467
1052 427 1081T330 1110Q277 1110 253 1081T227 985Q217 572 227 215Q228 149 251 120T329 90Z" />
<glyph unicode="e" glyph-name="e" horiz-adv-x="685" d="M354 -13Q218 -13 159 43T94 230Q91 337 90 467T90 727T94 968Q100 1100 160 1156T353 1213Q481 1213 538 1157T603 973Q604 926 605 817T601 572H223Q223 490 224 403T227 218Q229 146 257 119T352 92Q415
92 442 119T472 218Q475 292 472 413H601Q603 368 603 319T603 230Q596 100 541 44T354 -13ZM223 675H474Q475 771 475 859T472 985Q469 1051 442 1079T353 1108Q286 1108 258 1080T227 985Q226 899 225 824T223 675Z" />
<glyph unicode="f" glyph-name="f" horiz-adv-x="479" d="M127 0V1094H36V1200H127V1373Q126 1503 185 1559T376 1616Q403 1616 436 1612T496 1603V1501Q440 1508 378 1508Q314 1508 287 1480T260 1382V1200H465V1094H260V0H127Z" />
<glyph unicode="g" glyph-name="g" horiz-adv-x="727" d="M350 -325Q227 -325 153 -286T72 -156Q72 -148 71 -136T70 -112Q74 -54 109 -23T192 16V43Q102 71 98 145Q97 155 97 162T98 179Q100 219 128 247T194 281V308Q95 357 87 523Q84 610 84 674T83 805T87
968Q93 1100 152 1156T346 1213Q443 1213 498 1186T580 1097H606Q614 1200 725 1200V1094H693Q612 1094 610 956L608 844Q609 757 609 689T606 523Q599 393 541 336T346 279Q271 281 238 262T204 200V188Q206 149 239 134T357 114Q495 110 568 69T649 -78Q651 -105
649 -131Q641 -243 560 -284T350 -325ZM346 385Q413 385 442 412T475 510Q484 732 475 982Q472 1053 443 1080T346 1108Q278 1108 249 1081T217 982Q212 860 212 740T217 511Q220 440 249 413T346 385ZM355 -222Q431 -222 478 -203T530 -125Q531 -105 529 -81Q525
-21 479 -7T355 12Q280 16 237 -3T190 -83Q189 -104 190 -125Q194 -187 237 -204T355 -222Z" />
<glyph unicode="h" glyph-name="h" horiz-adv-x="740" d="M109 0V1600H242V1093H271Q301 1155 339 1184T447 1214Q541 1214 588 1159T636 976V0H504V985Q504 1052 479 1081T400 1110Q343 1110 303 1081T242 988V0H109Z" />
<glyph unicode="i" glyph-name="i" horiz-adv-x="352" d="M71 1440V1600H281V1440H71ZM110 0V1200H242V0H110Z" />
<glyph unicode="j" glyph-name="j" horiz-adv-x="348" d="M71 1440V1600H281V1440H71ZM-7 -410Q-34 -410 -68 -407T-127 -398V-295Q-104 -298 -72 -299T-10 -301Q55 -301 83 -273T111 -176V1200H243V-167Q243 -296 184 -353T-7 -410Z" />
<glyph unicode="k" glyph-name="k" horiz-adv-x="640" d="M109 0V1600H235V1170L222 659H252L332 884L450 1200H589L384 702L635 0H496L303 559L238 418V0H109Z" />
<glyph unicode="l" glyph-name="l" horiz-adv-x="352" d="M109 0V1600H242V0H109Z" />
<glyph unicode="m" glyph-name="m" horiz-adv-x="1129" d="M109 0V1200H242V1093H268Q298 1155 337 1184T447 1214Q517 1214 560 1184T622 1086H648Q678 1148 722 1181T836 1214Q931 1214 977 1159T1026 976V0H893V985Q892 1052 868 1081T790 1110Q676 1110 636
986V0H503V985Q502 1052 478 1081T400 1110Q343 1110 303 1081T242 988V0H109Z" />
<glyph unicode="n" glyph-name="n" horiz-adv-x="740" d="M109 0V1200H242V1093H271Q299 1151 339 1182T447 1214Q541 1214 588 1159T636 976V0H504V985Q503 1052 478 1081T400 1110Q348 1110 305 1078T242 988V0H109Z" />
<glyph unicode="o" glyph-name="o" horiz-adv-x="710" d="M356 -14Q216 -14 159 46T96 246Q92 354 91 476T91 721T96 954Q102 1093 158 1153T356 1214Q496 1214 552 1154T615 954Q620 792 620 602T615 246Q608 108 552 47T356 -14ZM356 92Q423 92 451 120T482
218Q486 360 487 480T488 720T482 981Q480 1052 452 1080T356 1108Q288 1108 259 1080T228 981Q224 840 223 720T222 480T228 218Q230 148 259 120T356 92Z" />
<glyph unicode="p" glyph-name="p" horiz-adv-x="729" d="M109 -400V1200H242V1093H268Q297 1155 335 1184T443 1214Q537 1214 584 1159T635 976Q637 908 638 813T639 613T638 407T635 224Q631 97 582 42T437 -14Q377 -14 338 14T268 107H242V-400H109ZM393 90Q446
90 473 119T502 215Q509 433 508 620T502 985Q500 1052 477 1081T400 1110Q343 1110 303 1081T242 988V212Q263 146 298 118T393 90Z" />
<glyph unicode="q" glyph-name="q" horiz-adv-x="729" d="M487 -400V107H463Q432 43 393 15T293 -14Q199 -14 149 41T94 224Q92 291 91 385T90 584T91 791T94 976Q98 1104 145 1159T286 1214Q357 1214 394 1185T462 1093H487V1200H619V-400H487ZM336 90Q396 90
431 118T487 212V988Q467 1052 427 1081T329 1110Q276 1110 253 1081T227 985Q221 769 221 582T227 215Q229 149 256 120T336 90Z" />
<glyph unicode="r" glyph-name="r" horiz-adv-x="494" d="M109 0V1200H242V1086H270Q287 1151 323 1177T422 1203Q438 1203 455 1202T485 1201V1094H423Q339 1094 299 1063T242 962V0H109Z" />
<glyph unicode="s" glyph-name="s" horiz-adv-x="643" d="M317 -14Q187 -14 135 43T78 230Q77 269 77 318T80 412H199Q197 353 197 305T198 218Q200 145 226 119T317 92Q385 92 413 118T443 218Q445 262 445 292T445 362Q443 436 427 475T359 532L265 564Q161
599 120 661T76 855Q75 886 75 912T78 968Q80 1100 133 1157T324 1214Q454 1214 506 1158T562 972Q562 934 562 885T560 791H438Q440 841 440 895T438 985Q437 1056 413 1082T324 1108Q258 1108 234 1082T208 985Q206 950 205 925T206 864Q207 789 220 743T292
677L381 649Q478 620 524 557T570 368Q570 335 570 298T567 227Q563 99 508 43T317 -14Z" />
<glyph unicode="t" glyph-name="t" horiz-adv-x="476" d="M372 -14Q232 -14 180 43T128 230V1094H45V1200H130V1540H263V1200H441V1094H260V217Q260 145 280 118T375 91Q403 91 420 92T461 98V-4Q420 -14 372 -14Z" />
<glyph unicode="u" glyph-name="u" horiz-adv-x="736" d="M294 -14Q200 -14 151 41T101 224V1200H234V215Q234 149 258 120T336 90Q388 90 431 122T494 212V1200H627V0H494V107H470Q411 -14 294 -14Z" />
<glyph unicode="v" glyph-name="v" horiz-adv-x="614" d="M193 0L35 1200H172L244 595L289 104H324L370 595L442 1200H579L420 0H193Z" />
<glyph unicode="w" glyph-name="w" horiz-adv-x="1035" d="M179 0L48 1200H182L240 595L275 104H310L347 595L405 1194H630L687 595L723 104H758L796 595L853 1200H987L854 0H623L581 460L535 1090H499L452 460L410 0H179Z" />
<glyph unicode="x" glyph-name="x" horiz-adv-x="587" d="M27 0L187 615L31 1200H160L224 940L277 672H307L362 940L427 1200H556L397 613L560 0H431L355 317L307 569H279L232 317L156 0H27Z" />
<glyph unicode="y" glyph-name="y" horiz-adv-x="645" d="M165 -407Q102 -407 45 -396V-292Q68 -295 100 -297T163 -300Q236 -300 262 -272T298 -172L320 0H224L53 1200H188L259 615L317 105H350L411 615L473 1200H609L429 -164Q411 -294 355 -350T165 -407Z" />
<glyph unicode="z" glyph-name="z" horiz-adv-x="560" d="M36 0V87L380 1096L44 1093V1197L525 1200V1111L177 104H512V0H36Z" />
<glyph unicode="{" glyph-name="braceleft" horiz-adv-x="574" d="M514 -401Q369 -401 275 -324T181 -88Q181 -56 183 13T189 160T194 300T197 380Q197 461 170 490T98 519H60V679H98Q143 679 170 708T197 818Q197 836 195 898T189 1038T184 1185T181 1286Q181
1446 275 1523T514 1600V1523Q425 1523 369 1458T312 1286Q312 1257 314 1195T319 1062T324 932T327 851Q327 756 293 693T193 615V583Q258 569 292 506T327 347Q327 325 325 267T320 137T315 4T312 -88Q312 -194 368 -259T514 -324V-401Z" />
<glyph unicode="|" glyph-name="bar" horiz-adv-x="344" d="M106 1820H238V-240H106V1820Z" />
<glyph unicode="}" glyph-name="braceright" horiz-adv-x="548" d="M34 -401Q179 -401 273 -324T367 -88Q367 -56 365 13T359 160T354 300T351 380Q351 461 378 490T450 519H488V679H450Q405 679 378 708T351 818Q351 836 353 898T359 1038T364 1185T367 1286Q367
1446 273 1523T34 1600V1523Q123 1523 179 1458T236 1286Q236 1257 234 1195T229 1062T224 932T221 851Q221 756 255 693T355 615V583Q290 569 256 506T221 347Q221 325 223 267T228 137T233 4T236 -88Q236 -194 180 -259T34 -324V-401Z" />
<glyph unicode="~" glyph-name="asciitilde" horiz-adv-x="915" d="M594 667Q532 671 492 700T417 760T329 797Q272 806 234 774T189 679H106Q116 799 181 853T337 898Q388 893 422 874T483 831T536 790T599 769Q655 764 689 796T727 883H809Q802 772 745 716T594 667Z" />
<glyph unicode="&#xa0;" glyph-name="uni00A0" horiz-adv-x="414" />
<glyph unicode="&#xa1;" glyph-name="exclamdown" horiz-adv-x="410" d="M157 884L135 11V-400H275V11L254 884H157ZM93 1200V1021H317V1200H93Z" />
<glyph unicode="&#xa2;" glyph-name="cent" horiz-adv-x="680" d="M288 0V191Q187 202 143 259T94 430Q91 538 91 668T90 928T94 1168Q98 1283 143 1340T288 1410V1600H407V1410Q509 1400 554 1343T603 1172Q603 1134 603 1085T601 991H471Q473 1041 473 1095T472
1185Q471 1256 442 1282T350 1308Q284 1308 256 1282T227 1185Q224 1042 223 922T223 681T227 418Q228 345 257 319T351 292Q415 292 443 318T472 418Q473 456 473 504T471 612H601Q603 567 603 518T603 430Q598 315 553 258T407 190V0H288Z" />
<glyph unicode="&#xa3;" glyph-name="sterling" horiz-adv-x="772" d="M127 0V114Q168 143 191 208T223 362T233 546Q233 612 228 667T216 771H111V849H198Q183 921 168 992T141 1150T130 1351Q131 1481 192 1546T388 1612Q524 1612 585 1551T651 1350Q652 1312
652 1255T652 1140T650 1044H517Q518 1121 519 1207T518 1370Q517 1440 487 1470T388 1500Q323 1500 294 1470T263 1370Q263 1265 275 1178T305 1012T338 849H516V771H348Q356 725 360 675T364 569Q364 405 336 305T261 151V120H667V0H127Z" />
<glyph unicode="&#xa4;" glyph-name="currency" horiz-adv-x="937" d="M174 61L109 113L239 279Q223 308 215 348T204 438Q201 546 200 668T199 914T204 1147Q207 1201 216 1243T245 1316L113 1482L175 1534L304 1374Q361 1407 464 1407Q575 1407 634 1369L768
1533L830 1479L688 1306Q720 1252 723 1147Q728 984 728 794T723 438Q720 339 689 281L824 113L760 61L635 218Q580 180 464 180Q354 180 296 217L174 61ZM464 285Q531 285 560 313T591 411Q595 553 596 673T597 912T591 1174Q589 1245 561 1273T464 1301Q396 1301
368 1273T337 1174Q333 1032 332 912T331 673T337 411Q339 341 368 313T464 285Z" />
<glyph unicode="&#xa5;" glyph-name="yen" horiz-adv-x="652" d="M260 0V206H104V268H260V318H104V381H260V418L41 1600H179L255 1148L308 691H344L397 1148L474 1600H611L393 418V381H549V318H393V268H549V206H393V0H260Z" />
<glyph unicode="&#xa6;" glyph-name="brokenbar" horiz-adv-x="344" d="M106 1820H238V1016H106V1820ZM106 536H238V-240H106V536Z" />
<glyph unicode="&#xa7;" glyph-name="section" horiz-adv-x="712" d="M349 -414Q220 -414 168 -363T111 -183Q109 -143 109 -88T113 12H232Q229 -48 229 -96T230 -183Q233 -255 259 -281T349 -308Q418 -308 446 -282T477 -183Q477 -140 478 -92T478 -6Q476 69
462 111T392 165L318 183Q221 206 167 255T109 408Q107 499 107 580T109 765Q111 836 140 882T211 950V985Q160 1009 137 1051T108 1191Q106 1231 107 1286T110 1378Q116 1466 139 1516T213 1586T357 1607Q487 1607 539 1551T595 1365Q596 1327 596 1280T593 1177H470Q473
1232 473 1286T472 1378Q469 1449 445 1471T357 1494Q292 1494 268 1472T240 1378Q238 1342 237 1285T237 1191Q241 1116 253 1076T324 1021L413 1001Q496 981 546 923T602 761Q608 657 606 578T601 408Q593 279 500 236V207Q554 181 578 126T604 -9Q605 -48 604
-97T601 -183Q593 -310 539 -362T349 -414ZM362 285Q429 285 452 324T480 411Q484 488 484 588T480 765Q476 813 453 850T362 888Q294 888 266 851T235 765Q231 688 232 588T235 411Q240 362 266 324T362 285Z" />
<glyph unicode="&#xa8;" glyph-name="dieresis" horiz-adv-x="557" d="M324 1310V1420H434V1310H324ZM138 1310V1420H247V1310H138Z" />
<glyph unicode="&#xa9;" glyph-name="copyright" horiz-adv-x="1216" d="M608 -10Q350 -10 228 137T106 600Q106 915 228 1062T608 1210Q865 1210 987 1063T1110 600Q1110 285 988 138T608 -10ZM608 66Q825 66 926 194T1027 600Q1027 876 926 1005T608 1134Q391
1134 290 1006T189 600Q189 323 290 195T608 66ZM613 174Q508 174 463 219T412 368Q410 428 410 509T410 674T412 823Q415 928 461 973T612 1019Q717 1019 762 974T811 826Q812 804 811 787T809 746H720Q721 770 721 791T721 833Q721 897 696 920T612 944Q555 944
530 921T503 833Q501 741 501 667T500 521T503 360Q505 295 530 272T613 249Q670 249 695 272T721 360Q722 383 722 402T720 456H809Q810 429 811 409T811 368Q806 265 762 220T613 174Z" />
<glyph unicode="&#xaa;" glyph-name="ordfeminine" horiz-adv-x="629" d="M267 754Q190 754 154 792T108 918Q106 937 106 952T106 988Q110 1064 144 1116T270 1212Q337 1246 417 1274Q417 1319 416 1361T413 1444Q412 1486 394 1507T321 1529Q278 1529 256 1512T228
1445Q227 1434 227 1408T228 1355T230 1312H124Q123 1325 123 1352T122 1405T122 1436Q126 1526 170 1569T326 1613Q437 1613 477 1569T521 1422Q522 1392 522 1327T523 1181T522 1018T522 868T521 764H413Q413 783 413 802T415 841H396Q377 799 348 777T267 754ZM303
836Q341 836 370 855T415 917Q417 985 417 1052T417 1187Q388 1177 358 1164T292 1128Q246 1101 230 1066T212 988Q212 982 212 960T214 926Q217 881 241 859T303 836Z" />
<glyph unicode="&#xab;" glyph-name="guillemotleft" horiz-adv-x="609" d="M530 255L276 551V691L530 988V847L336 621L530 395V255ZM491 255L237 551V691L491 988V847L297 621L491 395V255Z" />
<glyph unicode="&#xac;" glyph-name="logicalnot" horiz-adv-x="839" d="M628 544V844H106V950H733V544H628Z" />
<glyph unicode="&#xad;" glyph-name="uni00AD" horiz-adv-x="635" d="M60 707V827H575V707H60Z" />
<glyph unicode="&#xae;" glyph-name="registered" horiz-adv-x="781" d="M393 1039Q247 1039 177 1122T106 1377Q106 1553 176 1636T393 1719Q537 1719 606 1636T675 1377Q675 1039 393 1039ZM393 1087Q516 1087 572 1155T628 1377Q628 1533 572 1602T393 1671Q267
1671 211 1603T154 1377Q154 1224 211 1156T393 1087ZM310 1176V1600H396Q442 1600 464 1582T488 1516Q490 1478 488 1444Q485 1392 442 1380V1370Q484 1359 487 1307Q489 1278 489 1249T488 1176H435Q435 1214 435 1250T433 1313Q431 1353 396 1353H363V1176H310ZM363
1402H396Q432 1402 433 1438Q435 1475 433 1519Q432 1552 396 1552H363V1402Z" />
<glyph unicode="&#xaf;" glyph-name="overscore" horiz-adv-x="726" d="M144 1357H585V1280H144V1357Z" />
<glyph unicode="&#xb0;" glyph-name="degree" horiz-adv-x="650" d="M326 1182Q266 1182 216 1212T136 1291T106 1400Q106 1460 136 1510T216 1590T326 1620Q385 1620 434 1590T514 1510T544 1400Q544 1341 514 1292T435 1212T326 1182ZM326 1250Q387 1250 431
1294T476 1400Q476 1463 432 1508T326 1553Q263 1553 219 1508T174 1400Q174 1339 218 1295T326 1250Z" />
<glyph unicode="&#xb1;" glyph-name="plusminus" horiz-adv-x="879" d="M387 584V723H106V829H387V990H493V829H773V723H493V584H387ZM106 397V487H773V397H106Z" />
<glyph unicode="&#xb2;" glyph-name="uni00B2" horiz-adv-x="437" d="M67 880Q66 951 67 1021Q68 1109 101 1156T183 1234L233 1265Q260 1286 268 1307T279 1359Q282 1416 279 1474Q278 1496 265 1511T220 1527Q166 1527 164 1475Q163 1440 163 1404T166 1339H68Q67
1370 66 1401T66 1462Q71 1609 221 1609Q376 1609 377 1462Q378 1439 378 1416T379 1359Q377 1292 349 1255T269 1186L213 1153Q169 1118 169 1031V968H371V880H67Z" />
<glyph unicode="&#xb3;" glyph-name="uni00B3" horiz-adv-x="440" d="M222 871Q62 871 60 1013Q59 1040 59 1062T61 1123H159Q157 1091 157 1063T158 1012Q159 986 172 970T218 954Q276 954 278 1010Q279 1046 279 1082T278 1158Q276 1220 212 1220H143L140 1295L256
1512H65V1600H376L375 1516L249 1300Q307 1295 342 1263T378 1160Q379 1125 379 1082T378 1014Q376 946 339 909T222 871Z" />
<glyph unicode="&#xb4;" glyph-name="acute" horiz-adv-x="440" d="M99 1280L239 1507H342L198 1280H99Z" />
<glyph unicode="&#xb5;" glyph-name="uni00B5" horiz-adv-x="762" d="M107 -400L106 1200H238L240 215Q240 149 264 120T342 90Q394 90 435 122T495 212V1200H627V193Q627 56 656 0H524Q507 33 499 107H470Q425 7 340 -5Q279 -12 240 11V-400H107Z" />
<glyph unicode="&#xb6;" glyph-name="paragraph" horiz-adv-x="873" d="M439 -200V846H368Q228 846 172 906T108 1105Q106 1165 106 1230T108 1341Q116 1480 172 1540T368 1600H767V1517H685V-200H595V1517H529V-200H439Z" />
<glyph unicode="&#xb7;" glyph-name="middot" horiz-adv-x="302" d="M93 774V891H210V774H93Z" />
<glyph unicode="&#xb8;" glyph-name="cedilla" horiz-adv-x="417" d="M78 -264V-191H135Q224 -191 209 -104L189 0H269L289 -104Q314 -264 135 -264H78Z" />
<glyph unicode="&#xb9;" glyph-name="uni00B9" horiz-adv-x="301" d="M112 880V1508H46L44 1543L134 1600H212V880H112Z" />
<glyph unicode="&#xba;" glyph-name="ordmasculine" horiz-adv-x="639" d="M318 754Q208 754 163 797T111 948Q110 979 109 1043T107 1183T108 1323T111 1420Q120 1524 162 1569T317 1614Q436 1614 481 1567T531 1420Q532 1388 533 1323T534 1183T534 1044T531
948Q523 848 481 801T318 754ZM320 838Q376 838 398 857T421 924Q425 1030 426 1110T427 1267T421 1444Q420 1491 398 1510T320 1530Q270 1530 246 1511T219 1443Q217 1345 216 1268T215 1110T219 924Q221 875 246 857T320 838Z" />
<glyph unicode="&#xbb;" glyph-name="guillemotright" horiz-adv-x="609" d="M79 255L333 551V691L79 988V847L273 621L79 395V255ZM118 255L372 551V691L118 988V847L312 621L118 395V255Z" />
<glyph unicode="&#xbc;" glyph-name="onequarter" horiz-adv-x="766" d="M112 880V1508H46L44 1543L134 1600H212V880H112ZM-88 0L620 1600H724L15 0H-88ZM650 720V287H720V201H650V0H557V201H367V283L516 720H650ZM557 287L569 467L580 632H559L515 467L465 287H557Z" />
<glyph unicode="&#xbd;" glyph-name="onehalf" horiz-adv-x="780" d="M112 880V1508H46L44 1543L134 1600H212V880H112ZM-88 0L620 1600H724L15 0H-88ZM409 0Q408 71 409 141Q410 229 443 276T525 354L575 385Q602 406 610 427T621 479Q624 536 621 594Q620 616
607 631T562 647Q508 647 506 595Q505 560 505 524T508 459H410Q409 490 408 521T408 582Q413 729 563 729Q718 729 719 582Q720 559 720 536T721 479Q719 412 691 375T611 306L555 273Q511 238 511 151V88H713V0H409Z" />
<glyph unicode="&#xbe;" glyph-name="threequarters" horiz-adv-x="934" d="M222 871Q62 871 60 1013Q59 1040 59 1062T61 1123H159Q157 1091 157 1063T158 1012Q159 986 172 970T218 954Q276 954 278 1010Q279 1046 279 1082T278 1158Q276 1220 212 1220H143L140
1295L256 1512H65V1600H376L375 1516L249 1300Q307 1295 342 1263T378 1160Q379 1125 379 1082T378 1014Q376 946 339 909T222 871ZM80 0L788 1600H892L183 0H80ZM818 720V287H888V201H818V0H725V201H535V283L684 720H818ZM725 287L737 467L748 632H727L683 467L633
287H725Z" />
<glyph unicode="&#xbf;" glyph-name="questiondown" horiz-adv-x="648" d="M412 882L417 599Q420 518 397 472T309 395L269 377Q224 357 214 310T203 167V-172Q203 -302 327 -302Q389 -302 416 -271T447 -172Q451 -97 451 -15T448 154H577Q579 76 579 -2T578 -152Q574
-292 516 -353T329 -414Q192 -414 132 -354T71 -153Q71 -44 71 16T70 109T70 167Q72 276 87 335T133 425T213 478L251 495Q290 513 297 542T306 600L313 882H412ZM476 1200V1021H252V1200H476Z" />
<glyph unicode="&#xc0;" glyph-name="Agrave" horiz-adv-x="677" d="M44 0L215 1600H463L633 0H498L456 464H221L180 0H44ZM234 584H443L412 934L367 1480H311L266 933L234 584ZM278 1680L142 1907H244L377 1680H278Z" />
<glyph unicode="&#xc1;" glyph-name="Aacute" horiz-adv-x="677" d="M44 0L215 1600H463L633 0H498L456 464H221L180 0H44ZM234 584H443L412 934L367 1480H311L266 933L234 584ZM293 1680L433 1907H536L392 1680H293Z" />
<glyph unicode="&#xc2;" glyph-name="Acircumflex" horiz-adv-x="677" d="M44 0L215 1600H463L633 0H498L456 464H221L180 0H44ZM234 584H443L412 934L367 1480H311L266 933L234 584ZM166 1681L295 1908H383L513 1681H415L340 1821L264 1681H166Z" />
<glyph unicode="&#xc3;" glyph-name="Atilde" horiz-adv-x="677" d="M44 0L215 1600H463L633 0H498L456 464H221L180 0H44ZM234 584H443L412 934L367 1480H311L266 933L234 584ZM505 1827H570Q570 1753 531 1715T428 1681Q387 1683 361 1701T313 1737T261 1759Q234
1763 208 1748T178 1689H114Q120 1777 165 1810T268 1837Q312 1833 337 1814T382 1778T431 1758Q466 1755 485 1775T505 1827Z" />
<glyph unicode="&#xc4;" glyph-name="Adieresis" horiz-adv-x="677" d="M44 0L215 1600H463L633 0H498L456 464H221L180 0H44ZM234 584H443L412 934L367 1480H311L266 933L234 584ZM378 1710V1820H488V1710H378ZM192 1710V1820H301V1710H192Z" />
<glyph unicode="&#xc5;" glyph-name="Aring" horiz-adv-x="677" d="M44 0L215 1600H463L633 0H498L456 464H221L180 0H44ZM234 584H443L412 934L367 1480H311L266 933L234 584ZM340 1674Q284 1674 245 1713T205 1809Q205 1865 244 1905T340 1945Q395 1945 435
1905T476 1809Q476 1753 436 1714T340 1674ZM340 1754Q363 1754 379 1770T396 1809Q396 1833 380 1849T340 1866Q316 1866 300 1850T284 1809Q284 1786 300 1770T340 1754Z" />
<glyph unicode="&#xc6;" glyph-name="AE" horiz-adv-x="950" d="M44 0L306 1600H904V1480H585V865H884V746H585V120H904V0H453V464H260L187 0H44ZM283 584H453V1480H408L335 905L283 584Z" />
<glyph unicode="&#xc7;" glyph-name="Ccedilla" horiz-adv-x="699" d="M355 -15Q217 -15 158 46T96 248Q91 530 91 799T96 1351Q99 1481 159 1546T353 1612Q490 1612 551 1551T617 1350Q618 1312 618 1255T617 1140T615 1044H483Q484 1121 484 1207T484 1370Q482
1440 452 1470T353 1500Q289 1500 260 1470T229 1370Q223 1074 223 800T229 228Q230 159 259 129T355 98Q427 98 458 128T492 228Q493 310 493 402T490 577H623Q626 492 626 413T625 248Q621 107 558 46T355 -15ZM200 -257V-184H257Q346 -184 331 -97L311 7H391L411
-97Q436 -257 257 -257H200Z" />
<glyph unicode="&#xc8;" glyph-name="Egrave" horiz-adv-x="603" d="M106 0V1600H557V1480H238V865H537V746H238V120H557V0H106ZM262 1680L126 1907H228L361 1680H262Z" />
<glyph unicode="&#xc9;" glyph-name="Eacute" horiz-adv-x="603" d="M106 0V1600H557V1480H238V865H537V746H238V120H557V0H106ZM277 1680L417 1907H520L376 1680H277Z" />
<glyph unicode="&#xca;" glyph-name="Ecircumflex" horiz-adv-x="603" d="M106 0V1600H557V1480H238V865H537V746H238V120H557V0H106ZM150 1681L279 1908H367L497 1681H399L324 1821L248 1681H150Z" />
<glyph unicode="&#xcb;" glyph-name="Edieresis" horiz-adv-x="603" d="M106 0V1600H557V1480H238V865H537V746H238V120H557V0H106ZM362 1710V1820H472V1710H362ZM176 1710V1820H285V1710H176Z" />
<glyph unicode="&#xcc;" glyph-name="Igrave" horiz-adv-x="344" d="M106 0V1600H238V0H106ZM111 1680L-25 1907H77L210 1680H111Z" />
<glyph unicode="&#xcd;" glyph-name="Iacute" horiz-adv-x="344" d="M106 0V1600H238V0H106ZM126 1680L266 1907H369L225 1680H126Z" />
<glyph unicode="&#xce;" glyph-name="Icircumflex" horiz-adv-x="344" d="M106 0V1600H238V0H106ZM-1 1681L128 1908H216L346 1681H248L173 1821L97 1681H-1Z" />
<glyph unicode="&#xcf;" glyph-name="Idieresis" horiz-adv-x="344" d="M106 0V1600H238V0H106ZM211 1710V1820H321V1710H211ZM25 1710V1820H134V1710H25Z" />
<glyph unicode="&#xd0;" glyph-name="Eth" horiz-adv-x="793" d="M178 0V869H100V946H178V1600H434Q572 1600 633 1538T697 1334Q700 1143 701 972T701 629T697 267Q695 124 633 62T432 0H178ZM311 120H432Q501 120 532 152T565 254Q573 801 565 1347Q563 1416
532 1448T434 1480H311V946H438V869H311V120Z" />
<glyph unicode="&#xd1;" glyph-name="Ntilde" horiz-adv-x="806" d="M106 0V1600H332L421 1093L557 120H602L579 1034L570 1600H700V0H466L366 574L252 1480H204L226 599L234 0H106ZM576 1827H641Q641 1753 602 1715T499 1681Q458 1683 432 1701T384 1737T332
1759Q305 1763 279 1748T249 1689H185Q191 1777 236 1810T339 1837Q383 1833 408 1814T453 1778T502 1758Q537 1755 556 1775T576 1827Z" />
<glyph unicode="&#xd2;" glyph-name="Ograve" horiz-adv-x="719" d="M360 -14Q221 -14 161 46T97 246Q91 533 91 800T97 1354Q100 1493 160 1553T360 1614Q500 1614 560 1554T623 1354Q628 1066 628 800T623 246Q621 107 561 47T360 -14ZM360 100Q430 100 459
128T491 226Q499 520 498 804T491 1374Q489 1443 459 1472T360 1501Q292 1501 262 1472T230 1374Q221 1089 222 805T230 226Q231 157 261 129T360 100ZM300 1680L164 1907H266L399 1680H300Z" />
<glyph unicode="&#xd3;" glyph-name="Oacute" horiz-adv-x="719" d="M360 -14Q221 -14 161 46T97 246Q91 533 91 800T97 1354Q100 1493 160 1553T360 1614Q500 1614 560 1554T623 1354Q628 1066 628 800T623 246Q621 107 561 47T360 -14ZM360 100Q430 100 459
128T491 226Q499 520 498 804T491 1374Q489 1443 459 1472T360 1501Q292 1501 262 1472T230 1374Q221 1089 222 805T230 226Q231 157 261 129T360 100ZM315 1680L455 1907H558L414 1680H315Z" />
<glyph unicode="&#xd4;" glyph-name="Ocircumflex" horiz-adv-x="719" d="M360 -14Q221 -14 161 46T97 246Q91 533 91 800T97 1354Q100 1493 160 1553T360 1614Q500 1614 560 1554T623 1354Q628 1066 628 800T623 246Q621 107 561 47T360 -14ZM360 100Q430 100
459 128T491 226Q499 520 498 804T491 1374Q489 1443 459 1472T360 1501Q292 1501 262 1472T230 1374Q221 1089 222 805T230 226Q231 157 261 129T360 100ZM188 1681L317 1908H405L535 1681H437L362 1821L286 1681H188Z" />
<glyph unicode="&#xd5;" glyph-name="Otilde" horiz-adv-x="719" d="M360 -14Q221 -14 161 46T97 246Q91 533 91 800T97 1354Q100 1493 160 1553T360 1614Q500 1614 560 1554T623 1354Q628 1066 628 800T623 246Q621 107 561 47T360 -14ZM360 100Q430 100 459
128T491 226Q499 520 498 804T491 1374Q489 1443 459 1472T360 1501Q292 1501 262 1472T230 1374Q221 1089 222 805T230 226Q231 157 261 129T360 100ZM527 1827H592Q592 1753 553 1715T450 1681Q409 1683 383 1701T335 1737T283 1759Q256 1763 230 1748T200 1689H136Q142
1777 187 1810T290 1837Q334 1833 359 1814T404 1778T453 1758Q488 1755 507 1775T527 1827Z" />
<glyph unicode="&#xd6;" glyph-name="Odieresis" horiz-adv-x="719" d="M360 -14Q221 -14 161 46T97 246Q91 533 91 800T97 1354Q100 1493 160 1553T360 1614Q500 1614 560 1554T623 1354Q628 1066 628 800T623 246Q621 107 561 47T360 -14ZM360 100Q430 100 459
128T491 226Q499 520 498 804T491 1374Q489 1443 459 1472T360 1501Q292 1501 262 1472T230 1374Q221 1089 222 805T230 226Q231 157 261 129T360 100ZM400 1710V1820H510V1710H400ZM214 1710V1820H323V1710H214Z" />
<glyph unicode="&#xd7;" glyph-name="multiply" horiz-adv-x="758" d="M180 503L106 577L305 776L106 975L180 1049L379 851L578 1049L652 975L454 776L652 577L578 503L379 702L180 503Z" />
<glyph unicode="&#xd8;" glyph-name="Oslash" horiz-adv-x="719" d="M360 -14Q221 -14 161 46T97 246Q91 533 91 800T97 1354Q100 1493 160 1553T360 1614Q500 1614 560 1554T623 1354Q628 1066 628 800T623 246Q621 107 561 47T360 -14ZM223 642L496 1109Q494
1174 493 1240T491 1374Q489 1443 459 1472T360 1501Q292 1501 262 1472T230 1374Q225 1188 223 1008T223 642ZM360 100Q430 100 459 128T491 226Q496 415 497 592T496 951L226 474Q226 414 227 352T230 226Q231 157 261 129T360 100Z" />
<glyph unicode="&#xd9;" glyph-name="Ugrave" horiz-adv-x="704" d="M352 -14Q214 -14 154 46T92 246Q84 923 92 1600H224Q220 1262 220 913T223 226Q223 100 352 100Q480 100 480 226Q483 564 483 913T480 1600H613Q620 923 613 246Q611 107 551 47T352 -14ZM291
1680L155 1907H257L390 1680H291Z" />
<glyph unicode="&#xda;" glyph-name="Uacute" horiz-adv-x="704" d="M352 -14Q214 -14 154 46T92 246Q84 923 92 1600H224Q220 1262 220 913T223 226Q223 100 352 100Q480 100 480 226Q483 564 483 913T480 1600H613Q620 923 613 246Q611 107 551 47T352 -14ZM305
1680L445 1907H548L404 1680H305Z" />
<glyph unicode="&#xdb;" glyph-name="Ucircumflex" horiz-adv-x="704" d="M352 -14Q214 -14 154 46T92 246Q84 923 92 1600H224Q220 1262 220 913T223 226Q223 100 352 100Q480 100 480 226Q483 564 483 913T480 1600H613Q620 923 613 246Q611 107 551 47T352
-14ZM179 1681L308 1908H396L526 1681H428L353 1821L277 1681H179Z" />
<glyph unicode="&#xdc;" glyph-name="Udieresis" horiz-adv-x="704" d="M352 -14Q214 -14 154 46T92 246Q84 923 92 1600H224Q220 1262 220 913T223 226Q223 100 352 100Q480 100 480 226Q483 564 483 913T480 1600H613Q620 923 613 246Q611 107 551 47T352 -14ZM391
1710V1820H501V1710H391ZM205 1710V1820H314V1710H205Z" />
<glyph unicode="&#xdd;" glyph-name="Yacute" horiz-adv-x="652" d="M258 0V421L41 1600H177L254 1148L308 691H344L396 1148L473 1600H611L392 420V0H258ZM274 1680L414 1907H517L373 1680H274Z" />
<glyph unicode="&#xde;" glyph-name="Thorn" horiz-adv-x="670" d="M106 0V1600H238V1309H349Q485 1309 546 1249T613 1050Q617 916 617 810T613 593Q607 454 546 394T348 334H238V0H106ZM238 454H348Q416 454 446 486T480 587Q492 821 480 1056Q477 1125 447
1157T349 1189H238V454Z" />
<glyph unicode="&#xdf;" glyph-name="germandbls" horiz-adv-x="693" d="M106 0V1341Q106 1480 166 1540T367 1600Q503 1600 561 1540T621 1341Q623 1241 623 1167T621 1022Q617 938 589 891T501 823V789Q566 769 597 721T631 585Q634 497 634 422T631 259Q626
121 565 61T368 0H324V120H368Q495 120 499 260Q505 420 499 580Q497 669 465 707T360 746H329V865H356Q485 865 489 1024Q492 1117 492 1189T488 1354Q486 1423 458 1455T364 1487Q295 1487 268 1457T240 1357L238 0H106Z" />
<glyph unicode="&#xe0;" glyph-name="agrave" horiz-adv-x="695" d="M277 -13Q180 -13 134 44T79 214Q78 239 77 265T77 315Q84 420 125 496T279 636Q367 687 460 727V982Q460 1048 435 1078T345 1108Q288 1108 260 1082T229 985Q228 950 228 893T229 791H100Q99
830 98 881T98 973Q103 1101 160 1157T349 1213Q487 1213 539 1153T591 956V0H459V108H437Q415 50 379 19T277 -13ZM321 90Q420 90 460 206V617Q425 603 389 584T307 531Q250 489 231 437T209 315Q208 297 208 272T210 222Q220 90 321 90ZM288 1280L152 1507H254L387
1280H288Z" />
<glyph unicode="&#xe1;" glyph-name="aacute" horiz-adv-x="695" d="M277 -13Q180 -13 134 44T79 214Q78 239 77 265T77 315Q84 420 125 496T279 636Q367 687 460 727V982Q460 1048 435 1078T345 1108Q288 1108 260 1082T229 985Q228 950 228 893T229 791H100Q99
830 98 881T98 973Q103 1101 160 1157T349 1213Q487 1213 539 1153T591 956V0H459V108H437Q415 50 379 19T277 -13ZM321 90Q420 90 460 206V617Q425 603 389 584T307 531Q250 489 231 437T209 315Q208 297 208 272T210 222Q220 90 321 90ZM302 1280L442 1507H545L401
1280H302Z" />
<glyph unicode="&#xe2;" glyph-name="acircumflex" horiz-adv-x="695" d="M277 -13Q180 -13 134 44T79 214Q78 239 77 265T77 315Q84 420 125 496T279 636Q367 687 460 727V982Q460 1048 435 1078T345 1108Q288 1108 260 1082T229 985Q228 950 228 893T229 791H100Q99
830 98 881T98 973Q103 1101 160 1157T349 1213Q487 1213 539 1153T591 956V0H459V108H437Q415 50 379 19T277 -13ZM321 90Q420 90 460 206V617Q425 603 389 584T307 531Q250 489 231 437T209 315Q208 297 208 272T210 222Q220 90 321 90ZM175 1281L304 1508H392L522
1281H424L349 1421L273 1281H175Z" />
<glyph unicode="&#xe3;" glyph-name="atilde" horiz-adv-x="695" d="M277 -13Q180 -13 134 44T79 214Q78 239 77 265T77 315Q84 420 125 496T279 636Q367 687 460 727V982Q460 1048 435 1078T345 1108Q288 1108 260 1082T229 985Q228 950 228 893T229 791H100Q99
830 98 881T98 973Q103 1101 160 1157T349 1213Q487 1213 539 1153T591 956V0H459V108H437Q415 50 379 19T277 -13ZM321 90Q420 90 460 206V617Q425 603 389 584T307 531Q250 489 231 437T209 315Q208 297 208 272T210 222Q220 90 321 90ZM515 1427H580Q580 1353
541 1315T438 1281Q397 1283 371 1301T323 1337T271 1359Q244 1363 218 1348T188 1289H124Q130 1377 175 1410T278 1437Q322 1433 347 1414T392 1378T441 1358Q476 1355 495 1375T515 1427Z" />
<glyph unicode="&#xe4;" glyph-name="adieresis" horiz-adv-x="695" d="M277 -13Q180 -13 134 44T79 214Q78 239 77 265T77 315Q84 420 125 496T279 636Q367 687 460 727V982Q460 1048 435 1078T345 1108Q288 1108 260 1082T229 985Q228 950 228 893T229 791H100Q99
830 98 881T98 973Q103 1101 160 1157T349 1213Q487 1213 539 1153T591 956V0H459V108H437Q415 50 379 19T277 -13ZM321 90Q420 90 460 206V617Q425 603 389 584T307 531Q250 489 231 437T209 315Q208 297 208 272T210 222Q220 90 321 90ZM388 1310V1420H498V1310H388ZM202
1310V1420H311V1310H202Z" />
<glyph unicode="&#xe5;" glyph-name="aring" horiz-adv-x="695" d="M277 -13Q180 -13 134 44T79 214Q78 239 77 265T77 315Q84 420 125 496T279 636Q367 687 460 727V982Q460 1048 435 1078T345 1108Q288 1108 260 1082T229 985Q228 950 228 893T229 791H100Q99
830 98 881T98 973Q103 1101 160 1157T349 1213Q487 1213 539 1153T591 956V0H459V108H437Q415 50 379 19T277 -13ZM321 90Q420 90 460 206V617Q425 603 389 584T307 531Q250 489 231 437T209 315Q208 297 208 272T210 222Q220 90 321 90ZM349 1274Q293 1274 254
1313T214 1409Q214 1465 253 1505T349 1545Q404 1545 444 1505T485 1409Q485 1353 445 1314T349 1274ZM349 1354Q372 1354 388 1370T405 1409Q405 1433 389 1449T349 1466Q325 1466 309 1450T293 1409Q293 1386 309 1370T349 1354Z" />
<glyph unicode="&#xe6;" glyph-name="ae" horiz-adv-x="1055" d="M277 -13Q92 -13 79 214Q78 239 77 265T77 315Q88 485 279 591Q322 616 368 641T461 687Q461 761 461 834T461 982Q461 1048 436 1078T345 1108Q288 1108 260 1082T229 985Q228 950 228 893T229
791H100Q99 830 98 881T98 973Q103 1101 160 1157T349 1213Q477 1213 532 1158Q563 1188 610 1200T723 1213Q852 1213 909 1157T972 973Q974 926 975 826T970 589H593V218Q593 146 624 119T722 92Q785 92 812 119T843 218Q844 255 844 304T841 413H970Q973 368
973 319T972 230Q967 100 912 44T723 -13Q625 -13 567 15T484 108H470Q421 -13 277 -13ZM593 692H843Q845 781 845 863T843 985Q839 1051 812 1079T723 1108Q656 1108 625 1080T593 985V692ZM321 90Q354 90 387 106T441 163T463 280Q463 349 462 422T461 572Q430
557 392 536T307 481Q259 445 236 408T209 315Q208 299 208 273T210 222Q220 90 321 90Z" />
<glyph unicode="&#xe7;" glyph-name="ccedilla" horiz-adv-x="680" d="M471 791Q474 841 474 895T473 985Q472 1056 443 1082T350 1108Q285 1108 257 1082T227 985Q224 842 223 722T223 481T227 218Q228 145 257 119T351 92Q415 92 443 118T473 218Q473 256 473
304T471 412H601Q603 367 603 318T603 230Q598 100 541 43T351 -14Q217 -14 158 43T94 230Q91 338 90 468T90 728T94 968Q100 1100 159 1157T350 1214Q482 1214 540 1158T603 972Q603 934 603 885T601 791H471ZM194 -257V-184H251Q340 -184 325 -97L305 7H385L405
-97Q430 -257 251 -257H194Z" />
<glyph unicode="&#xe8;" glyph-name="egrave" horiz-adv-x="685" d="M354 -13Q218 -13 159 43T94 230Q91 337 90 467T90 727T94 968Q100 1100 160 1156T353 1213Q481 1213 538 1157T603 973Q604 926 605 817T601 572H223Q223 490 224 403T227 218Q229 146 257
119T352 92Q415 92 442 119T472 218Q475 292 472 413H601Q603 368 603 319T603 230Q596 100 541 44T354 -13ZM223 675H474Q475 771 475 859T472 985Q469 1051 442 1079T353 1108Q286 1108 258 1080T227 985Q226 899 225 824T223 675ZM288 1280L152 1507H254L387
1280H288Z" />
<glyph unicode="&#xe9;" glyph-name="eacute" horiz-adv-x="685" d="M354 -13Q218 -13 159 43T94 230Q91 337 90 467T90 727T94 968Q100 1100 160 1156T353 1213Q481 1213 538 1157T603 973Q604 926 605 817T601 572H223Q223 490 224 403T227 218Q229 146 257
119T352 92Q415 92 442 119T472 218Q475 292 472 413H601Q603 368 603 319T603 230Q596 100 541 44T354 -13ZM223 675H474Q475 771 475 859T472 985Q469 1051 442 1079T353 1108Q286 1108 258 1080T227 985Q226 899 225 824T223 675ZM302 1280L442 1507H545L401
1280H302Z" />
<glyph unicode="&#xea;" glyph-name="ecircumflex" horiz-adv-x="685" d="M354 -13Q218 -13 159 43T94 230Q91 337 90 467T90 727T94 968Q100 1100 160 1156T353 1213Q481 1213 538 1157T603 973Q604 926 605 817T601 572H223Q223 490 224 403T227 218Q229 146
257 119T352 92Q415 92 442 119T472 218Q475 292 472 413H601Q603 368 603 319T603 230Q596 100 541 44T354 -13ZM223 675H474Q475 771 475 859T472 985Q469 1051 442 1079T353 1108Q286 1108 258 1080T227 985Q226 899 225 824T223 675ZM175 1281L304 1508H392L522
1281H424L349 1421L273 1281H175Z" />
<glyph unicode="&#xeb;" glyph-name="edieresis" horiz-adv-x="685" d="M354 -13Q218 -13 159 43T94 230Q91 337 90 467T90 727T94 968Q100 1100 160 1156T353 1213Q481 1213 538 1157T603 973Q604 926 605 817T601 572H223Q223 490 224 403T227 218Q229 146 257
119T352 92Q415 92 442 119T472 218Q475 292 472 413H601Q603 368 603 319T603 230Q596 100 541 44T354 -13ZM223 675H474Q475 771 475 859T472 985Q469 1051 442 1079T353 1108Q286 1108 258 1080T227 985Q226 899 225 824T223 675ZM388 1310V1420H498V1310H388ZM202
1310V1420H311V1310H202Z" />
<glyph unicode="&#xec;" glyph-name="igrave" horiz-adv-x="352" d="M109 0V1200H242V0H109ZM371 1280L235 1507H337L470 1280H371Z" />
<glyph unicode="&#xed;" glyph-name="iacute" horiz-adv-x="352" d="M109 0V1200H242V0H109ZM129 1280L269 1507H372L228 1280H129Z" />
<glyph unicode="&#xee;" glyph-name="icircumflex" horiz-adv-x="352" d="M109 0V1200H242V0H109ZM259 1281L388 1508H476L606 1281H508L433 1421L357 1281H259Z" />
<glyph unicode="&#xef;" glyph-name="idieresis" horiz-adv-x="352" d="M109 0V1200H242V0H109ZM471 1310V1420H581V1310H471ZM285 1310V1420H394V1310H285Z" />
<glyph unicode="&#xf0;" glyph-name="eth" horiz-adv-x="729" d="M368 -15Q227 -15 165 46T97 248Q90 483 97 854Q98 973 151 1034T300 1095Q356 1095 399 1072T462 1013H479Q468 1086 447 1147T396 1262L242 1185L213 1243L359 1315Q324 1371 280 1415T184 1499L254
1612Q323 1561 379 1507T478 1381L601 1442L629 1385L513 1328Q622 1128 629 784Q630 656 630 516T629 248Q625 107 565 46T368 -15ZM366 98Q494 98 496 228Q498 380 498 530T495 872Q494 925 452 953T350 982Q232 982 229 852Q222 489 230 228Q235 98 366 98Z"
/>
<glyph unicode="&#xf1;" glyph-name="ntilde" horiz-adv-x="740" d="M109 0V1200H242V1093H271Q299 1151 339 1182T447 1214Q541 1214 588 1159T636 976V0H504V985Q503 1052 478 1081T400 1110Q348 1110 305 1078T242 988V0H109ZM541 1427H606Q606 1353 567 1315T464
1281Q423 1283 397 1301T349 1337T297 1359Q270 1363 244 1348T214 1289H150Q156 1377 201 1410T304 1437Q348 1433 373 1414T418 1378T467 1358Q502 1355 521 1375T541 1427Z" />
<glyph unicode="&#xf2;" glyph-name="ograve" horiz-adv-x="710" d="M356 -14Q216 -14 159 46T96 246Q92 354 91 476T91 721T96 954Q102 1093 158 1153T356 1214Q496 1214 552 1154T615 954Q620 792 620 602T615 246Q608 108 552 47T356 -14ZM356 92Q423 92 451
120T482 218Q486 360 487 480T488 720T482 981Q480 1052 452 1080T356 1108Q288 1108 259 1080T228 981Q224 840 223 720T222 480T228 218Q230 148 259 120T356 92ZM294 1280L158 1507H260L393 1280H294Z" />
<glyph unicode="&#xf3;" glyph-name="oacute" horiz-adv-x="710" d="M356 -14Q216 -14 159 46T96 246Q92 354 91 476T91 721T96 954Q102 1093 158 1153T356 1214Q496 1214 552 1154T615 954Q620 792 620 602T615 246Q608 108 552 47T356 -14ZM356 92Q423 92 451
120T482 218Q486 360 487 480T488 720T482 981Q480 1052 452 1080T356 1108Q288 1108 259 1080T228 981Q224 840 223 720T222 480T228 218Q230 148 259 120T356 92ZM309 1280L449 1507H552L408 1280H309Z" />
<glyph unicode="&#xf4;" glyph-name="ocircumflex" horiz-adv-x="710" d="M356 -14Q216 -14 159 46T96 246Q92 354 91 476T91 721T96 954Q102 1093 158 1153T356 1214Q496 1214 552 1154T615 954Q620 792 620 602T615 246Q608 108 552 47T356 -14ZM356 92Q423
92 451 120T482 218Q486 360 487 480T488 720T482 981Q480 1052 452 1080T356 1108Q288 1108 259 1080T228 981Q224 840 223 720T222 480T228 218Q230 148 259 120T356 92ZM182 1281L311 1508H399L529 1281H431L356 1421L280 1281H182Z" />
<glyph unicode="&#xf5;" glyph-name="otilde" horiz-adv-x="710" d="M356 -14Q216 -14 159 46T96 246Q92 354 91 476T91 721T96 954Q102 1093 158 1153T356 1214Q496 1214 552 1154T615 954Q620 792 620 602T615 246Q608 108 552 47T356 -14ZM356 92Q423 92 451
120T482 218Q486 360 487 480T488 720T482 981Q480 1052 452 1080T356 1108Q288 1108 259 1080T228 981Q224 840 223 720T222 480T228 218Q230 148 259 120T356 92ZM521 1427H586Q586 1353 547 1315T444 1281Q403 1283 377 1301T329 1337T277 1359Q250 1363 224
1348T194 1289H130Q136 1377 181 1410T284 1437Q328 1433 353 1414T398 1378T447 1358Q482 1355 501 1375T521 1427Z" />
<glyph unicode="&#xf6;" glyph-name="odieresis" horiz-adv-x="710" d="M356 -14Q216 -14 159 46T96 246Q92 354 91 476T91 721T96 954Q102 1093 158 1153T356 1214Q496 1214 552 1154T615 954Q620 792 620 602T615 246Q608 108 552 47T356 -14ZM356 92Q423 92
451 120T482 218Q486 360 487 480T488 720T482 981Q480 1052 452 1080T356 1108Q288 1108 259 1080T228 981Q224 840 223 720T222 480T228 218Q230 148 259 120T356 92ZM394 1310V1420H504V1310H394ZM208 1310V1420H317V1310H208Z" />
<glyph unicode="&#xf7;" glyph-name="divide" horiz-adv-x="905" d="M382 936V1078H524V936H382ZM106 723V829H799V723H106ZM382 474V616H524V474H382Z" />
<glyph unicode="&#xf8;" glyph-name="oslash" horiz-adv-x="710" d="M356 -14Q216 -14 159 46T96 246Q92 354 91 476T91 721T96 954Q102 1093 158 1153T356 1214Q496 1214 552 1154T615 954Q620 792 620 602T615 246Q608 108 552 47T356 -14ZM228 981Q224 838
223 718T223 474L486 821Q485 895 482 981Q480 1052 452 1080T356 1108Q288 1108 259 1080T228 981ZM356 92Q423 92 451 120T482 218Q486 352 487 465T488 694L225 349Q226 288 228 218Q230 148 259 120T356 92Z" />
<glyph unicode="&#xf9;" glyph-name="ugrave" horiz-adv-x="736" d="M294 -14Q200 -14 151 41T101 224V1200H234V215Q234 149 258 120T336 90Q388 90 431 122T494 212V1200H627V0H494V107H470Q411 -14 294 -14ZM301 1280L165 1507H267L400 1280H301Z" />
<glyph unicode="&#xfa;" glyph-name="uacute" horiz-adv-x="736" d="M294 -14Q200 -14 151 41T101 224V1200H234V215Q234 149 258 120T336 90Q388 90 431 122T494 212V1200H627V0H494V107H470Q411 -14 294 -14ZM315 1280L455 1507H558L414 1280H315Z" />
<glyph unicode="&#xfb;" glyph-name="ucircumflex" horiz-adv-x="736" d="M294 -14Q200 -14 151 41T101 224V1200H234V215Q234 149 258 120T336 90Q388 90 431 122T494 212V1200H627V0H494V107H470Q411 -14 294 -14ZM189 1281L318 1508H406L536 1281H438L363 1421L287
1281H189Z" />
<glyph unicode="&#xfc;" glyph-name="udieresis" horiz-adv-x="736" d="M294 -14Q200 -14 151 41T101 224V1200H234V215Q234 149 258 120T336 90Q388 90 431 122T494 212V1200H627V0H494V107H470Q411 -14 294 -14ZM401 1310V1420H511V1310H401ZM215 1310V1420H324V1310H215Z"
/>
<glyph unicode="&#xfd;" glyph-name="yacute" horiz-adv-x="645" d="M165 -407Q102 -407 45 -396V-292Q68 -295 100 -297T163 -300Q236 -300 262 -272T298 -172L320 0H224L53 1200H188L259 615L317 105H350L411 615L473 1200H609L429 -164Q411 -294 355 -350T165
-407ZM297 1280L437 1507H540L396 1280H297Z" />
<glyph unicode="&#xfe;" glyph-name="thorn" horiz-adv-x="740" d="M106 -400V1600H238V1093H264Q293 1155 331 1184T439 1214Q534 1214 580 1159T631 976Q633 908 634 813T635 613T634 407T631 224Q627 97 578 42T433 -14Q373 -14 334 14T264 107H238V-400H106ZM389
90Q443 90 470 119T498 215Q505 433 504 620T498 985Q497 1052 474 1081T396 1110Q340 1110 299 1081T238 988V212Q259 146 294 118T389 90Z" />
<glyph unicode="&#xff;" glyph-name="ydieresis" horiz-adv-x="645" d="M165 -407Q102 -407 45 -396V-292Q68 -295 100 -297T163 -300Q236 -300 262 -272T298 -172L320 0H224L53 1200H188L259 615L317 105H350L411 615L473 1200H609L429 -164Q411 -294 355 -350T165
-407ZM383 1310V1420H493V1310H383ZM197 1310V1420H306V1310H197Z" />
<glyph unicode="&#x2013;" glyph-name="endash" horiz-adv-x="809" d="M60 707V827H749V707H60Z" />
<glyph unicode="&#x2014;" glyph-name="emdash" horiz-adv-x="1373" d="M60 707V827H1313V707H60Z" />
<glyph unicode="&#x2018;" glyph-name="quoteleft" horiz-adv-x="411" d="M93 1215V1379L189 1600H275L199 1396H318V1215H93Z" />
<glyph unicode="&#x2019;" glyph-name="quoteright" horiz-adv-x="411" d="M136 1215L212 1419H93V1600H318V1436L222 1215H136Z" />
<glyph unicode="&#x201a;" glyph-name="quotesinglbase" horiz-adv-x="385" d="M136 -204L212 0H93V181H318V17L222 -204H136Z" />
<glyph unicode="&#x201c;" glyph-name="quotedblleft" horiz-adv-x="658" d="M363 1215V1379L458 1600H545L468 1396H588V1215H363ZM71 1215V1379L167 1600H253L177 1396H296V1215H71Z" />
<glyph unicode="&#x201d;" glyph-name="quotedblright" horiz-adv-x="658" d="M114 1215L190 1419H71V1600H296V1436L200 1215H114ZM405 1215L482 1419H363V1600H588V1436L492 1215H405Z" />
<glyph unicode="&#x201e;" glyph-name="quotedblbase" horiz-adv-x="752" d="M136 -204L212 0H93V181H318V17L222 -204H136ZM478 -204L554 0H435V181H660V17L564 -204H478Z" />
<glyph unicode="&#x2022;" glyph-name="bullet" horiz-adv-x="476" d="M93 665V955H383V665H93Z" />
<glyph unicode="&#x2039;" glyph-name="guilsinglleft" horiz-adv-x="407" d="M314 255L60 551V691L314 988V847L120 621L314 395V255Z" />
<glyph unicode="&#x203a;" glyph-name="guilsinglright" horiz-adv-x="407" d="M93 255L347 551V691L93 988V847L287 621L93 395V255Z" />
</font>
</defs>
</svg>
